<svg xmlns="http://www.w3.org/2000/svg" xmlns:xlink="http://www.w3.org/1999/xlink" width="104.88" viewBox="0 0 104.88 30" height="30" version="1.0"><defs><g id="a"><path d="M 1.15625 0.046875 C 0.925781 0.046875 0.726562 0.0078125 0.5625 -0.0625 C 0.394531 -0.144531 0.253906 -0.253906 0.140625 -0.390625 L 0.53125 -0.765625 C 0.707031 -0.566406 0.929688 -0.46875 1.203125 -0.46875 C 1.335938 -0.46875 1.441406 -0.492188 1.515625 -0.546875 C 1.585938 -0.609375 1.625 -0.6875 1.625 -0.78125 C 1.625 -0.863281 1.601562 -0.925781 1.5625 -0.96875 C 1.519531 -1.019531 1.4375 -1.054688 1.3125 -1.078125 L 1.046875 -1.109375 C 0.765625 -1.140625 0.554688 -1.222656 0.421875 -1.359375 C 0.285156 -1.492188 0.21875 -1.675781 0.21875 -1.90625 C 0.21875 -2.03125 0.238281 -2.140625 0.28125 -2.234375 C 0.332031 -2.335938 0.398438 -2.421875 0.484375 -2.484375 C 0.578125 -2.554688 0.679688 -2.613281 0.796875 -2.65625 C 0.921875 -2.695312 1.066406 -2.71875 1.234375 -2.71875 C 1.429688 -2.71875 1.601562 -2.6875 1.75 -2.625 C 1.90625 -2.5625 2.039062 -2.46875 2.15625 -2.34375 L 1.765625 -1.953125 C 1.703125 -2.023438 1.625 -2.082031 1.53125 -2.125 C 1.445312 -2.175781 1.332031 -2.203125 1.1875 -2.203125 C 1.0625 -2.203125 0.96875 -2.175781 0.90625 -2.125 C 0.84375 -2.082031 0.8125 -2.019531 0.8125 -1.9375 C 0.8125 -1.851562 0.832031 -1.789062 0.875 -1.75 C 0.925781 -1.707031 1.007812 -1.675781 1.125 -1.65625 L 1.390625 -1.609375 C 1.660156 -1.566406 1.863281 -1.484375 2 -1.359375 C 2.132812 -1.234375 2.203125 -1.054688 2.203125 -0.828125 C 2.203125 -0.691406 2.175781 -0.570312 2.125 -0.46875 C 2.082031 -0.363281 2.015625 -0.269531 1.921875 -0.1875 C 1.835938 -0.113281 1.726562 -0.0546875 1.59375 -0.015625 C 1.46875 0.0234375 1.320312 0.046875 1.15625 0.046875 Z M 1.15625 0.046875"/></g><g id="b"><path d="M 1.40625 -2.15625 L 1.40625 0 L 0.828125 0 L 0.828125 -2.15625 L 0.109375 -2.15625 L 0.109375 -2.671875 L 2.125 -2.671875 L 2.125 -2.15625 Z M 1.40625 -2.15625"/></g><g id="c"><path d="M 1.9375 0 L 1.75 -0.640625 L 0.859375 -0.640625 L 0.671875 0 L 0.078125 0 L 0.953125 -2.671875 L 1.671875 -2.671875 L 2.546875 0 Z M 1.3125 -2.140625 L 1.296875 -2.140625 L 1 -1.125 L 1.609375 -1.125 Z M 1.3125 -2.140625"/></g><g id="d"><path d="M 0.875 0 L 0.296875 0 L 0.296875 -2.671875 L 1.5625 -2.671875 C 1.6875 -2.671875 1.796875 -2.648438 1.890625 -2.609375 C 1.992188 -2.566406 2.078125 -2.507812 2.140625 -2.4375 C 2.210938 -2.363281 2.269531 -2.273438 2.3125 -2.171875 C 2.351562 -2.066406 2.375 -1.945312 2.375 -1.8125 C 2.375 -1.632812 2.332031 -1.476562 2.25 -1.34375 C 2.164062 -1.207031 2.046875 -1.109375 1.890625 -1.046875 L 2.40625 0 L 1.765625 0 L 1.296875 -0.984375 L 0.875 -0.984375 Z M 1.484375 -1.46875 C 1.578125 -1.46875 1.644531 -1.488281 1.6875 -1.53125 C 1.738281 -1.582031 1.765625 -1.648438 1.765625 -1.734375 L 1.765625 -1.90625 C 1.765625 -1.988281 1.738281 -2.050781 1.6875 -2.09375 C 1.644531 -2.144531 1.578125 -2.171875 1.484375 -2.171875 L 0.875 -2.171875 L 0.875 -1.46875 Z M 1.484375 -1.46875"/></g><g id="e"><path d="M 0.296875 0 L 0.296875 -2.671875 L 2.109375 -2.671875 L 2.109375 -2.15625 L 0.875 -2.15625 L 0.875 -1.609375 L 1.9375 -1.609375 L 1.9375 -1.09375 L 0.875 -1.09375 L 0.875 -0.515625 L 2.109375 -0.515625 L 2.109375 0 Z M 0.296875 0"/></g><g id="f"><path d="M 2.765625 0 L 2.765625 -3.046875 L 0.09375 -7.796875 L 2 -7.796875 L 3.671875 -4.6875 L 3.703125 -4.6875 L 5.3125 -7.796875 L 7.15625 -7.796875 L 4.484375 -3.0625 L 4.484375 0 Z M 2.765625 0"/></g><g id="g"><path d="M 3.984375 0.140625 C 3.472656 0.140625 3.003906 0.0546875 2.578125 -0.109375 C 2.148438 -0.285156 1.785156 -0.539062 1.484375 -0.875 C 1.191406 -1.21875 0.960938 -1.640625 0.796875 -2.140625 C 0.640625 -2.648438 0.5625 -3.238281 0.5625 -3.90625 C 0.5625 -4.5625 0.640625 -5.140625 0.796875 -5.640625 C 0.960938 -6.148438 1.191406 -6.570312 1.484375 -6.90625 C 1.785156 -7.25 2.148438 -7.503906 2.578125 -7.671875 C 3.003906 -7.847656 3.472656 -7.9375 3.984375 -7.9375 C 4.503906 -7.9375 4.972656 -7.847656 5.390625 -7.671875 C 5.816406 -7.503906 6.175781 -7.25 6.46875 -6.90625 C 6.769531 -6.570312 7.003906 -6.148438 7.171875 -5.640625 C 7.335938 -5.140625 7.421875 -4.5625 7.421875 -3.90625 C 7.421875 -3.238281 7.335938 -2.648438 7.171875 -2.140625 C 7.003906 -1.640625 6.769531 -1.21875 6.46875 -0.875 C 6.175781 -0.539062 5.816406 -0.285156 5.390625 -0.109375 C 4.972656 0.0546875 4.503906 0.140625 3.984375 0.140625 Z M 3.984375 -1.375 C 4.503906 -1.375 4.90625 -1.539062 5.1875 -1.875 C 5.476562 -2.207031 5.625 -2.6875 5.625 -3.3125 L 5.625 -4.484375 C 5.625 -5.109375 5.476562 -5.585938 5.1875 -5.921875 C 4.90625 -6.253906 4.503906 -6.421875 3.984375 -6.421875 C 3.472656 -6.421875 3.070312 -6.253906 2.78125 -5.921875 C 2.5 -5.585938 2.359375 -5.109375 2.359375 -4.484375 L 2.359375 -3.3125 C 2.359375 -2.6875 2.5 -2.207031 2.78125 -1.875 C 3.070312 -1.539062 3.472656 -1.375 3.984375 -1.375 Z M 3.984375 -1.375"/></g><g id="h"><path d="M 2.46875 -7.796875 L 2.46875 -3.015625 C 2.46875 -2.460938 2.570312 -2.050781 2.78125 -1.78125 C 3 -1.507812 3.363281 -1.375 3.875 -1.375 C 4.382812 -1.375 4.742188 -1.507812 4.953125 -1.78125 C 5.171875 -2.050781 5.28125 -2.460938 5.28125 -3.015625 L 5.28125 -7.796875 L 6.9375 -7.796875 L 6.9375 -3.1875 C 6.9375 -2.613281 6.878906 -2.117188 6.765625 -1.703125 C 6.660156 -1.285156 6.484375 -0.9375 6.234375 -0.65625 C 5.992188 -0.382812 5.679688 -0.179688 5.296875 -0.046875 C 4.910156 0.078125 4.4375 0.140625 3.875 0.140625 C 3.3125 0.140625 2.835938 0.078125 2.453125 -0.046875 C 2.066406 -0.179688 1.75 -0.382812 1.5 -0.65625 C 1.257812 -0.9375 1.082031 -1.285156 0.96875 -1.703125 C 0.863281 -2.117188 0.8125 -2.613281 0.8125 -3.1875 L 0.8125 -7.796875 Z M 2.46875 -7.796875"/></g><g id="i"><path d="M 4.109375 -6.296875 L 4.109375 0 L 2.40625 0 L 2.40625 -6.296875 L 0.296875 -6.296875 L 0.296875 -7.796875 L 6.21875 -7.796875 L 6.21875 -6.296875 Z M 4.109375 -6.296875"/></g><g id="j"><path d="M 0.859375 -7.796875 L 4.640625 -7.796875 C 5.296875 -7.796875 5.800781 -7.613281 6.15625 -7.25 C 6.519531 -6.882812 6.703125 -6.398438 6.703125 -5.796875 C 6.703125 -5.492188 6.660156 -5.238281 6.578125 -5.03125 C 6.503906 -4.820312 6.398438 -4.648438 6.265625 -4.515625 C 6.140625 -4.390625 5.988281 -4.296875 5.8125 -4.234375 C 5.632812 -4.171875 5.445312 -4.132812 5.25 -4.125 L 5.25 -4.0625 C 5.4375 -4.0625 5.628906 -4.023438 5.828125 -3.953125 C 6.035156 -3.890625 6.222656 -3.785156 6.390625 -3.640625 C 6.566406 -3.492188 6.710938 -3.300781 6.828125 -3.0625 C 6.941406 -2.832031 7 -2.550781 7 -2.21875 C 7 -1.914062 6.945312 -1.628906 6.84375 -1.359375 C 6.75 -1.085938 6.613281 -0.847656 6.4375 -0.640625 C 6.257812 -0.441406 6.046875 -0.285156 5.796875 -0.171875 C 5.546875 -0.0546875 5.28125 0 5 0 L 0.859375 0 Z M 2.5625 -1.4375 L 4.515625 -1.4375 C 4.734375 -1.4375 4.90625 -1.492188 5.03125 -1.609375 C 5.164062 -1.734375 5.234375 -1.910156 5.234375 -2.140625 L 5.234375 -2.515625 C 5.234375 -2.734375 5.164062 -2.90625 5.03125 -3.03125 C 4.90625 -3.15625 4.734375 -3.21875 4.515625 -3.21875 L 2.5625 -3.21875 Z M 2.5625 -4.609375 L 4.25 -4.609375 C 4.46875 -4.609375 4.640625 -4.671875 4.765625 -4.796875 C 4.890625 -4.921875 4.953125 -5.09375 4.953125 -5.3125 L 4.953125 -5.65625 C 4.953125 -5.875 4.890625 -6.046875 4.765625 -6.171875 C 4.640625 -6.304688 4.46875 -6.375 4.25 -6.375 L 2.5625 -6.375 Z M 2.5625 -4.609375"/></g><g id="k"><path d="M 0.859375 0 L 0.859375 -7.796875 L 6.171875 -7.796875 L 6.171875 -6.296875 L 2.5625 -6.296875 L 2.5625 -4.6875 L 5.65625 -4.6875 L 5.65625 -3.1875 L 2.5625 -3.1875 L 2.5625 -1.515625 L 6.171875 -1.515625 L 6.171875 0 Z M 0.859375 0"/></g></defs><g fill="#D9D9D9"><use x="4.537" y="24.333" xmlns:xlink="http://www.w3.org/1999/xlink" xlink:href="#a" xlink:type="simple" xlink:actuate="onLoad" xlink:show="embed"/></g><g fill="#D9D9D9"><use x="7.311" y="24.333" xmlns:xlink="http://www.w3.org/1999/xlink" xlink:href="#b" xlink:type="simple" xlink:actuate="onLoad" xlink:show="embed"/></g><g fill="#D9D9D9"><use x="9.933" y="24.333" xmlns:xlink="http://www.w3.org/1999/xlink" xlink:href="#c" xlink:type="simple" xlink:actuate="onLoad" xlink:show="embed"/></g><g fill="#D9D9D9"><use x="12.941" y="24.333" xmlns:xlink="http://www.w3.org/1999/xlink" xlink:href="#d" xlink:type="simple" xlink:actuate="onLoad" xlink:show="embed"/></g><g fill="#D9D9D9"><use x="15.907" y="24.333" xmlns:xlink="http://www.w3.org/1999/xlink" xlink:href="#b" xlink:type="simple" xlink:actuate="onLoad" xlink:show="embed"/></g><g fill="#D9D9D9"><use x="18.528" y="24.333" xmlns:xlink="http://www.w3.org/1999/xlink" xlink:href="#e" xlink:type="simple" xlink:actuate="onLoad" xlink:show="embed"/></g><g fill="#D9D9D9"><use x="21.238" y="24.333" xmlns:xlink="http://www.w3.org/1999/xlink" xlink:href="#d" xlink:type="simple" xlink:actuate="onLoad" xlink:show="embed"/></g><g fill="#D9D9D9"><use x="4.537" y="14.444" xmlns:xlink="http://www.w3.org/1999/xlink" xlink:href="#f" xlink:type="simple" xlink:actuate="onLoad" xlink:show="embed"/></g><g fill="#D9D9D9"><use x="12.904" y="14.444" xmlns:xlink="http://www.w3.org/1999/xlink" xlink:href="#g" xlink:type="simple" xlink:actuate="onLoad" xlink:show="embed"/></g><g fill="#D9D9D9"><use x="21.998" y="14.444" xmlns:xlink="http://www.w3.org/1999/xlink" xlink:href="#h" xlink:type="simple" xlink:actuate="onLoad" xlink:show="embed"/></g><g fill="#FF1616"><use x="30.859" y="14.444" xmlns:xlink="http://www.w3.org/1999/xlink" xlink:href="#i" xlink:type="simple" xlink:actuate="onLoad" xlink:show="embed"/></g><g fill="#FF1616"><use x="38.5" y="14.444" xmlns:xlink="http://www.w3.org/1999/xlink" xlink:href="#h" xlink:type="simple" xlink:actuate="onLoad" xlink:show="embed"/></g><g fill="#FF1616"><use x="47.37" y="14.444" xmlns:xlink="http://www.w3.org/1999/xlink" xlink:href="#j" xlink:type="simple" xlink:actuate="onLoad" xlink:show="embed"/></g><g fill="#FF1616"><use x="55.939" y="14.444" xmlns:xlink="http://www.w3.org/1999/xlink" xlink:href="#k" xlink:type="simple" xlink:actuate="onLoad" xlink:show="embed"/></g></svg>